<svg xmlns="http://www.w3.org/2000/svg" width="1080" height="1080" viewBox="0 0 1080 1080">
  <circle cx="540" cy="540" r="467.845" fill="#fafafc"/>
  <ellipse cx="578.875" cy="1018.918" rx="116.114" ry="8.992" fill="#b3b3b3"/>
  <path d="M747.056,919.588V536.812c0-114.354-92.7-207.056-207.056-207.056h0c-114.354,0-207.056,92.7-207.056,207.056V919.588Z" fill="#fafafc" stroke="#b3b3b3" stroke-miterlimit="10" stroke-width="6"/>
  <circle cx="540" cy="511.395" r="70.272" fill="#fafafc" stroke="#e6e6e6" stroke-miterlimit="10" stroke-width="6"/>
  <circle cx="540" cy="505.39" r="70.272" fill="#fafafc" stroke="#ccc" stroke-miterlimit="10" stroke-width="6"/>
  <circle cx="540" cy="505.39" r="51.689" fill="#fff" stroke="#ccc" stroke-miterlimit="10" stroke-width="6"/>
  <line x1="688.171" y1="392.204" x2="688.171" y2="919.588" fill="#fafafc" stroke="#ccc" stroke-miterlimit="10" stroke-width="6"/>
  <line x1="391.829" y1="392.204" x2="391.829" y2="921.366" fill="#fafafc" stroke="#ccc" stroke-miterlimit="10" stroke-width="6"/>
  <line x1="540" y1="329.756" x2="540" y2="435.119" fill="#fafafc" stroke="#ccc" stroke-miterlimit="10" stroke-width="6"/>
  <line x1="540" y1="575.662" x2="540" y2="911.777" fill="#fafafc" stroke="#ccc" stroke-miterlimit="10" stroke-width="6"/>
  <path d="M747.056,919.588V536.812c0-114.354-92.7-207.056-207.056-207.056h0c-114.354,0-207.056,92.7-207.056,207.056V919.588Z" fill="none" stroke="#ccc" stroke-miterlimit="10" stroke-width="6"/>
  <rect x="65.498" y="911.777" width="969.14" height="25.558" rx="12.779" fill="#e6e6e6"/>
  <circle cx="391.829" cy="714.709" r="29.01" fill="#fff" stroke="#b3b3b3" stroke-miterlimit="10" stroke-width="5"/>
  <circle cx="391.829" cy="631.631" r="20.513" fill="#fff" stroke="#b3b3b3" stroke-miterlimit="10" stroke-width="4"/>
  <rect x="376.738" y="710.555" width="88.202" height="14.313" rx="7.157" fill="#999"/>
  <rect x="376.738" y="707.553" width="88.202" height="14.313" rx="7.157" fill="#b3b3b3"/>
  <g>
    <circle cx="391.829" cy="626.459" r="6.103" fill="#b3b3b3"/>
    <rect x="390.256" y="626.459" width="3.146" height="16.448" rx="1.573" fill="#b3b3b3"/>
  </g>
  <circle cx="688.171" cy="611.118" r="9.238" fill="#b3b3b3"/>
  <polyline points="645.008 637.042 688.287 602.988 728.972 642.906" fill="none" stroke="#b3b3b3" stroke-linejoin="round" stroke-width="2"/>
  <rect x="638.672" y="644.914" width="97.926" height="53.326" rx="6.048" transform="translate(49.085 -46.832) rotate(4.045)" fill="#ccc"/>
  <rect x="635.669" y="639.91" width="97.926" height="53.326" rx="6.048" stroke-width="2" fill="#e6e6e6" stroke="#b3b3b3" stroke-linejoin="round" transform="translate(48.725 -46.633) rotate(4.045)"/>
  <g>
    <path d="M657.647,647.374l3.834,12.634-2.154-.152-.9-3.163-5.151-.364-1.338,3-2.153-.153,5.574-11.969Zm.292,7.622-1.549-5.53-.069,0-2.327,5.254Z" fill="gray"/>
    <path d="M672.415,649.318a4.565,4.565,0,0,1,1.41,3.078l-1.965-.139a2.88,2.88,0,0,0-1.028-1.857,3.673,3.673,0,0,0-2.08-.7,3.37,3.37,0,0,0-3.006,1.12,5.368,5.368,0,0,0-1.13,3.245,5.487,5.487,0,0,0,.642,3.4,3.553,3.553,0,0,0,2.892,1.469,3.51,3.51,0,0,0,2.2-.485,3.811,3.811,0,0,0,1.389-2.014l1.965.139a5.444,5.444,0,0,1-2.168,3.24,5.311,5.311,0,0,1-3.492.9,5.494,5.494,0,0,1-4.447-2.253,8.121,8.121,0,0,1,.681-8.906,5.4,5.4,0,0,1,4.635-1.628A5.534,5.534,0,0,1,672.415,649.318Z" fill="gray"/>
    <path d="M685.023,650.21a4.555,4.555,0,0,1,1.409,3.078l-1.964-.139a2.872,2.872,0,0,0-1.029-1.856,3.668,3.668,0,0,0-2.08-.7,3.371,3.371,0,0,0-3.006,1.121,5.38,5.38,0,0,0-1.129,3.245,5.5,5.5,0,0,0,.642,3.4,4.085,4.085,0,0,0,5.091.983,3.8,3.8,0,0,0,1.388-2.013l1.965.138a5.45,5.45,0,0,1-2.168,3.241,5.307,5.307,0,0,1-3.492.9,5.492,5.492,0,0,1-4.447-2.254,8.12,8.12,0,0,1,.681-8.9,5.392,5.392,0,0,1,4.635-1.628A5.526,5.526,0,0,1,685.023,650.21Z" fill="gray"/>
    <path d="M697.642,650.2l-.122,1.722-6.856-.484-.242,3.412,6.445.455-.122,1.723-6.445-.455-.263,3.722,7.15.5-.121,1.723-9.167-.648.87-12.3Z" fill="gray"/>
    <path d="M707.517,651.558a3.951,3.951,0,0,1,1.271,3.085l-2-.141a2.693,2.693,0,0,0-.831-1.7,3.337,3.337,0,0,0-2-.643,3.792,3.792,0,0,0-1.8.2,1.319,1.319,0,0,0-.848,1.222,1.4,1.4,0,0,0,.773,1.319,17.571,17.571,0,0,0,2.047.906,19.212,19.212,0,0,1,3.138,1.434,2.958,2.958,0,0,1,1.415,2.767,3.1,3.1,0,0,1-1.478,2.527,7.575,7.575,0,0,1-7.207-.44,4.2,4.2,0,0,1-1.446-3.547l2,.14a2.9,2.9,0,0,0,.858,2.07,3.881,3.881,0,0,0,2.2.692,4.388,4.388,0,0,0,2.168-.3,1.4,1.4,0,0,0,.879-1.167,1.753,1.753,0,0,0-1.045-1.634,23.8,23.8,0,0,0-2.337-.977,19.875,19.875,0,0,1-2.753-1.235,2.726,2.726,0,0,1-1.237-2.58,2.925,2.925,0,0,1,1.559-2.47,6.664,6.664,0,0,1,6.668.471Z" fill="gray"/>
    <path d="M718.73,652.351A3.955,3.955,0,0,1,720,655.436l-2-.141a2.7,2.7,0,0,0-.832-1.7,3.336,3.336,0,0,0-2-.643,3.789,3.789,0,0,0-1.8.2,1.317,1.317,0,0,0-.848,1.222,1.4,1.4,0,0,0,.773,1.319,17.485,17.485,0,0,0,2.047.906,19.212,19.212,0,0,1,3.138,1.434A2.959,2.959,0,0,1,719.9,660.8a3.1,3.1,0,0,1-1.478,2.528,7.575,7.575,0,0,1-7.207-.44,4.2,4.2,0,0,1-1.446-3.547l2,.14a2.908,2.908,0,0,0,.858,2.07,3.882,3.882,0,0,0,2.2.692,4.386,4.386,0,0,0,2.167-.3,1.4,1.4,0,0,0,.88-1.167,1.754,1.754,0,0,0-1.046-1.634,23.3,23.3,0,0,0-2.337-.977,19.936,19.936,0,0,1-2.753-1.235,2.724,2.724,0,0,1-1.237-2.58,2.924,2.924,0,0,1,1.56-2.47,6.662,6.662,0,0,1,6.667.471Z" fill="gray"/>
    <path d="M658.115,668.18a5.91,5.91,0,0,1,4.413,1.975,6.29,6.29,0,0,1,1.163,4.6,6.358,6.358,0,0,1-1.8,4.393,5.908,5.908,0,0,1-4.647,1.333l-4.5-.318.87-12.3Zm-3.23,10.4,2.1.148a4.614,4.614,0,0,0,3.435-.829,4.739,4.739,0,0,0,1.272-3.287,4.67,4.67,0,0,0-.795-3.45,4.607,4.607,0,0,0-3.286-1.289l-2.1-.149Z" fill="gray"/>
    <path d="M674.892,669.367l-.122,1.723-6.857-.485-.241,3.411,6.444.456-.122,1.723-6.445-.456-.262,3.722,7.15.5-.122,1.723-9.166-.648.87-12.3Z" fill="gray"/>
    <path d="M679.093,669.664l5.454,9.3.069,0,.628-8.873,2.033.145-.87,12.3-1.964-.14-5.516-9.429-.068,0-.636,8.994-2.016-.142.87-12.3Z" fill="gray"/>
    <path d="M691.7,670.555l-.87,12.3-2.017-.143.87-12.3Z" fill="gray"/>
    <path d="M702.985,671.353l-.122,1.724-6.857-.485L695.765,676l6.444.455-.122,1.722-6.444-.455-.263,3.722,7.15.5-.122,1.722-9.166-.648.87-12.3Z" fill="gray"/>
    <path d="M709.668,671.826a5.909,5.909,0,0,1,4.413,1.974,6.3,6.3,0,0,1,1.164,4.6,6.362,6.362,0,0,1-1.8,4.393,5.913,5.913,0,0,1-4.648,1.333l-4.5-.319.871-12.3Zm-3.23,10.4,2.1.149a4.6,4.6,0,0,0,3.435-.83,4.74,4.74,0,0,0,1.272-3.287,4.672,4.672,0,0,0-.795-3.45,4.611,4.611,0,0,0-3.286-1.289l-2.1-.148Z" fill="gray"/>
  </g>
  <g>
    <path d="M513.3,985.794l1.245,31.524s6.134,2.2,23.221,2.2,21.46-2.674,21.46-2.674L550.136,985.2Z" fill="#e6e6e6" stroke="#ccc" stroke-miterlimit="10" stroke-width="2"/>
    <path d="M519.622,960.2c.992-1.573,31.175,3.375,32.405,5.309C552.027,965.511,529.661,966.7,519.622,960.2Z" fill="#999"/>
    <path d="M512.273,985.559l7.609-25a104.838,104.838,0,0,0,15.654,3.8,129.942,129.942,0,0,0,16,1.476l-.381,19.61A55.319,55.319,0,0,1,512.273,985.559Z" fill="#b3b3b3" stroke="#999" stroke-miterlimit="10" stroke-width="1.023"/>
  </g>
  <g>
    <path d="M626.438,983.5l-1.244,33.106s-6.135,2.311-23.221,2.311-21.46-2.808-21.46-2.808l9.085-33.231Z" fill="#e6e6e6" stroke="#ccc" stroke-miterlimit="10" stroke-width="2"/>
    <path d="M620.113,956.625c-.992-1.652-31.176,3.544-32.406,5.575C587.707,962.2,610.074,963.452,620.113,956.625Z" fill="#999"/>
    <path d="M627.462,983.254,619.852,957a100.78,100.78,0,0,1-15.653,3.987,123.76,123.76,0,0,1-16,1.55l.38,20.594A52.88,52.88,0,0,0,627.462,983.254Z" fill="#b3b3b3" stroke="#999" stroke-miterlimit="10" stroke-width="1.023"/>
  </g>
  <circle cx="538.03" cy="953.385" r="10.402" fill="#999" stroke="gray" stroke-miterlimit="10" stroke-width="1.336"/>
  <circle cx="603.987" cy="949.049" r="10.402" fill="#999" stroke="gray" stroke-miterlimit="10" stroke-width="1.336"/>
  <circle cx="644.514" cy="874.024" r="9.154" fill="#b3b3b3" stroke="#999" stroke-miterlimit="10" stroke-width="1.336"/>
  <g>
    <path d="M511.171,932.6l-4.466,1.135c-1.855-.82-7.328-17.024-4.71-20.493l3.54-.527" fill="#bbbcbb"/>
    <path d="M638.033,920.857l4.6.3c1.673-1.146,4.078-18.08.868-21.009l-3.577.132" fill="#bbbcbb"/>
    <path d="M635.479,917.038l4.608.022c1.6-1.244,3-18.29-.381-21.023l-3.563.344" fill="#bbbcbb"/>
    <ellipse cx="565.026" cy="850.746" rx="30.247" ry="1.618" transform="translate(-76.035 55.721) rotate(-5.29)" fill="#88837a"/>
    <ellipse cx="508.504" cy="885.973" rx="21.166" ry="4.486" transform="translate(-428.116 1293.733) rotate(-83.672)" fill="#88837a"/>
    <ellipse cx="629.87" cy="874.641" rx="3.235" ry="21.166" transform="translate(-299.3 328.403) rotate(-23.79)" fill="#88837a"/>
    <path d="M508.99,864.748l25.918-11.213s33.187.458,60.237-5.578l26.9,6.322a31.831,31.831,0,0,1,5.168,10.9c1.833,7.211,4.5,18.081,10.276,24.526,6.287,7.007,6.188,31.2-5.981,40.773S557.032,955.811,520.937,942c0,0-20.072-12.179-17.277-37.291C503.66,904.711,514.306,894.44,508.99,864.748Z" fill="#b3b3b3" stroke="gray" stroke-miterlimit="10" stroke-width="1.023"/>
    <path d="M613.542,852.162s4.91,21.772,12.765,32.7A55.116,55.116,0,0,1,636.6,913a12.4,12.4,0,0,1-5.351,11.121c-21.484,14.716-93.437,24.17-116.4,7.27a9.969,9.969,0,0,1-3.9-6.5,54.835,54.835,0,0,1,4.7-31.417c5.714-12.185,6.543-34.488,6.543-34.488" fill="none" stroke="gray" stroke-miterlimit="10" stroke-width="1.023"/>
  </g>
  <g>
    <path d="M665.125,855.214l13.667-10.862,18.771-22.59,4.613-17.148a11.419,11.419,0,0,1,13.243-8.234l24.451,4.84a6.434,6.434,0,0,1,4.582,9.031L729.269,842.8l-30.3,25.26-38.338,7.606a3,3,0,0,1-3.287-4.238Z" fill="#ccc"/>
    <g>
      <path d="M735.113,800.686l1.881-8.789c.681-3.181-1.648-5.618-5.29-5.442l-7.838.316a4.564,4.564,0,0,0-3.733,4.618l.232,6.422Z" fill="#a9a8a5"/>
      <g>
        <rect x="739.067" y="777.535" width="3.651" height="6.742" rx="1.825" transform="translate(1245.693 1731.648) rotate(-164.472)" fill="#bbbcbb"/>
        <rect x="737.783" y="780.769" width="3.651" height="6.991" rx="1.825" transform="translate(1038.314 1820.056) rotate(-152.765)" fill="#bbbcbb"/>
        <rect x="735.578" y="783.734" width="3.651" height="7.821" rx="1.825" transform="translate(853.683 1860.317) rotate(-143.074)" fill="#bbbcbb"/>
      </g>
      <g>
        <rect x="732.798" y="774.402" width="3.651" height="9.834" rx="1.825" transform="translate(1266.041 1709.161) rotate(-166.44)" fill="#bbbcbb"/>
        <rect x="733.609" y="770.456" width="3.651" height="7.42" rx="1.825" transform="translate(1441.151 1575.516) rotate(-177.839)" fill="#bbbcbb"/>
        <rect x="730.796" y="780.265" width="3.651" height="9.834" rx="1.825" transform="translate(1090.328 1797.749) rotate(-156.44)" fill="#bbbcbb"/>
      </g>
      <g>
        <rect x="726.276" y="774.642" width="3.651" height="8.461" rx="1.825" transform="translate(1417.527 1592.178) rotate(-177.217)" fill="#bbbcbb"/>
        <rect x="726.034" y="769.579" width="3.651" height="8.556" rx="1.825" transform="translate(1563.439 1429.936) rotate(171.384)" fill="#bbbcbb"/>
        <rect x="725.44" y="779.403" width="3.651" height="9.834" rx="1.825" transform="translate(1262.97 1710.113) rotate(-167.217)" fill="#bbbcbb"/>
      </g>
      <rect x="717.421" y="783.23" width="3.651" height="6.215" rx="1.825" transform="translate(-215.066 273.793) rotate(-18.803)" fill="#bbbcbb"/>
      <rect x="716.819" y="781.231" width="3.651" height="5.569" rx="1.825" transform="translate(-109.348 116.514) rotate(-8.616)" fill="#bbbcbb"/>
      <rect x="718.507" y="786.023" width="3.651" height="5.606" rx="1.825" transform="translate(-290.936 444.644) rotate(-28.803)" fill="#bbbcbb"/>
    </g>
    <path d="M713.331,797.81h0a9.891,9.891,0,0,1,1.967.2l24.432,4.94a4.9,4.9,0,0,1,3.46,6.891l-15.17,32.177-29.843,24.667-37.985,7.374a1.629,1.629,0,0,1-.3.029,1.446,1.446,0,0,1-1.223-.7,1.414,1.414,0,0,1-.072-1.409l7.7-15.866,13.435-10.587.125-.1.1-.122L698.819,822.8l.216-.257.088-.324,4.685-17.129a9.9,9.9,0,0,1,9.523-7.277m0-1.536a11.423,11.423,0,0,0-11,8.408l-4.684,17.129-18.864,22.512-13.712,10.806-7.851,16.183a2.989,2.989,0,0,0,3.268,4.251l38.37-7.447,30.408-25.136,15.316-32.486a6.435,6.435,0,0,0-4.544-9.051L715.6,796.5a11.471,11.471,0,0,0-2.273-.229Z" fill="#b3b3b3"/>
    <line x1="698.854" y1="868.116" x2="678.779" y2="844.323" fill="none" stroke="#b3b3b3" stroke-miterlimit="10" stroke-width="1.336"/>
    <line x1="697.643" y1="821.811" x2="729.262" y2="842.98" fill="none" stroke="#b3b3b3" stroke-miterlimit="10" stroke-width="1.336"/>
    <g>
      <circle cx="714.553" cy="832.351" r="8.689" fill="#b3b3b3"/>
      <path d="M714.56,823.661a8.69,8.69,0,1,1-7.14,3.728,8.649,8.649,0,0,1,7.14-3.728m0-.668h0a9.359,9.359,0,1,0,5.336,1.677,9.37,9.37,0,0,0-5.336-1.677Z" fill="#b3b3b3"/>
      <path d="M714.561,824.685h0a7.665,7.665,0,1,1-6.3,3.288,7.616,7.616,0,0,1,6.3-3.288m0-1.024a8.691,8.691,0,1,0,4.954,1.557,8.679,8.679,0,0,0-4.954-1.557Z" fill="#ccc"/>
    </g>
    <g>
      <circle cx="677.427" cy="856.072" r="4.494" fill="#b3b3b3"/>
      <path d="M677.431,851.578a4.494,4.494,0,1,1-3.693,1.928,4.471,4.471,0,0,1,3.693-1.928m0-.334h0a4.829,4.829,0,1,0,2.753.865,4.835,4.835,0,0,0-2.753-.865Z" fill="#b3b3b3"/>
      <path d="M677.431,852.107h0a3.965,3.965,0,1,1-3.258,1.7,3.94,3.94,0,0,1,3.258-1.7m0-.529a4.494,4.494,0,1,0,2.562.805,4.491,4.491,0,0,0-2.562-.805Z" fill="#ccc"/>
    </g>
  </g>
  <path d="M682.552,742.314C667.947,690.5,619.033,610.462,511.9,630.547,383.133,664.915,395.232,800.662,395.232,800.662s-3.756,37.928,56.33,47.766c28.736,5.382,67.008,5.074,103.972-2.381,41.218-8.314,80.145-26.737,100.868-39.217C698.724,781.344,682.552,742.314,682.552,742.314Z" fill="#ccc" stroke="#999" stroke-miterlimit="10" stroke-width="3"/>
  <circle cx="497.411" cy="885.882" r="9.154" fill="#b3b3b3" stroke="#999" stroke-miterlimit="10" stroke-width="1.336"/>
  <g>
    <path d="M492.254,900.155l-5.017,16.722-2.508,29.264,6.006,16.711a11.417,11.417,0,0,1-6.169,14.321l-22.836,9.991a6.433,6.433,0,0,1-8.918-4.8l-6.126-35.39,10.452-38.043L484.266,880.8a3,3,0,0,1,5.118,1.6Z" fill="#ccc"/>
    <g>
      <g>
        <rect x="483.164" y="983.234" width="3.651" height="7.61" rx="1.825" transform="translate(1392.949 1607.581) rotate(150.518)" fill="#bbbcbb"/>
        <rect x="484.404" y="986.977" width="3.651" height="7.42" rx="1.825" transform="translate(1099.88 1907.918) rotate(172.358)" fill="#bbbcbb"/>
        <rect x="481.656" y="982.225" width="3.651" height="4.662" rx="1.825" transform="translate(1482.656 1437.053) rotate(140.519)" fill="#bbbcbb"/>
      </g>
      <path d="M465.94,984.885l3.476,8.29c1.258,3,4.477,4.419,7.45,1.446L482,988.449a4.563,4.563,0,0,0,.427-5.922l-2.737-3.7Z" fill="#a9a8a5"/>
      <g>
        <rect x="470.741" y="997.038" width="3.651" height="9.834" rx="1.825" transform="translate(4.137 -1.941) rotate(0.236)" fill="#939393"/>
        <rect x="471.139" y="1003.446" width="3.651" height="7.42" rx="1.825" transform="translate(-186.039 110.622) rotate(-11.163)" fill="#939393"/>
        <rect x="471.338" y="990.872" width="3.651" height="9.834" rx="1.825" transform="translate(184.484 -68.233) rotate(10.236)" fill="#939393"/>
      </g>
      <g>
        <rect x="471.311" y="997.066" width="3.651" height="9.834" rx="1.825" transform="translate(-47.786 23.991) rotate(-2.765)" fill="#a9a8a5"/>
        <rect x="471.982" y="1003.446" width="3.651" height="7.42" rx="1.825" transform="translate(-232.052 146.564) rotate(-14.164)" fill="#a9a8a5"/>
        <rect x="471.584" y="990.877" width="3.651" height="9.834" rx="1.825" transform="translate(129.171 -51.69) rotate(7.235)" fill="#a9a8a5"/>
      </g>
      <g>
        <rect x="472.387" y="997.092" width="3.651" height="9.834" rx="1.825" transform="translate(-90.367 47.992) rotate(-5.29)" fill="#bbbcbb"/>
        <rect x="473.284" y="1003.438" width="3.651" height="7.42" rx="1.825" transform="translate(-269.226 178.872) rotate(-16.69)" fill="#bbbcbb"/>
        <rect x="472.387" y="990.897" width="3.651" height="9.834" rx="1.825" transform="translate(83.358 -35.571) rotate(4.709)" fill="#bbbcbb"/>
      </g>
      <circle cx="473.807" cy="986.587" r="3.349" fill="#939393"/>
    </g>
    <path d="M486.576,881.424h0a1.453,1.453,0,0,1,1.461,1.239l2.742,17.419L485.8,916.446l-.046.152-.014.158-2.629,29.253-.03.334.112.316,5.937,16.737a9.91,9.91,0,0,1-5.39,12.373l-22.877,9.9a4.889,4.889,0,0,1-6.776-3.68l-5.922-35.077,10.411-37.292,26.971-27.745a1.412,1.412,0,0,1,1.033-.447m0-1.535a2.949,2.949,0,0,0-2.133.911L457.2,908.826l-10.608,38,5.979,35.415a6.422,6.422,0,0,0,8.9,4.834l22.877-9.9a11.417,11.417,0,0,0,6.228-14.3l-5.937-16.736,2.629-29.253,5.085-16.7-2.8-17.768a2.992,2.992,0,0,0-2.978-2.535Z" fill="#b3b3b3"/>
    <line x1="457.198" y1="908.826" x2="487.265" y2="916.893" fill="none" stroke="#b3b3b3" stroke-miterlimit="10" stroke-width="1.336"/>
    <line x1="484.636" y1="946.146" x2="446.59" y2="946.825" fill="none" stroke="#b3b3b3" stroke-miterlimit="10" stroke-width="1.336"/>
    <g>
      <circle cx="466.804" cy="946.825" r="8.689" fill="#b3b3b3"/>
      <path d="M466.8,938.136a8.69,8.69,0,1,1-8.689,8.689,8.689,8.689,0,0,1,8.689-8.689m0-.668a9.358,9.358,0,1,0,9.357,9.357,9.368,9.368,0,0,0-9.357-9.357Z" fill="#b3b3b3"/>
      <path d="M466.8,939.159a7.666,7.666,0,1,1-7.666,7.666,7.675,7.675,0,0,1,7.666-7.666m0-1.023a8.69,8.69,0,1,0,8.689,8.689,8.689,8.689,0,0,0-8.689-8.689Z" fill="#ccc"/>
    </g>
    <g>
      <circle cx="481.65" cy="906.069" r="4.494" fill="#b3b3b3"/>
      <path d="M481.65,901.575a4.494,4.494,0,1,1-4.494,4.494,4.494,4.494,0,0,1,4.494-4.494m0-.334a4.828,4.828,0,1,0,4.828,4.828,4.834,4.834,0,0,0-4.828-4.828Z" fill="#b3b3b3"/>
      <path d="M481.65,902.105a3.964,3.964,0,1,1-3.964,3.964,3.969,3.969,0,0,1,3.964-3.964m0-.53a4.494,4.494,0,1,0,4.494,4.494,4.494,4.494,0,0,0-4.494-4.494Z" fill="#ccc"/>
    </g>
  </g>
  <rect x="763.307" y="203.969" width="94.349" height="51.204" fill="#f2f2f2"/>
  <rect x="816.331" y="266.223" width="133.13" height="51.204" fill="#f2f2f2"/>
  <rect x="763.307" y="328.477" width="133.13" height="51.204" fill="#f2f2f2"/>
  <rect x="1002.485" y="657.98" width="133.13" height="51.204" fill="#f2f2f2"/>
  <rect x="949.461" y="720.234" width="133.13" height="51.204" fill="#f2f2f2"/>
  <rect x="191.022" y="515.132" width="51.204" height="51.204" fill="#f2f2f2"/>
  <rect x="95.632" y="577.387" width="101.022" height="51.204" fill="#f2f2f2"/>
  <rect x="95.632" y="639.641" width="133.13" height="51.204" fill="#f2f2f2"/>
  <rect x="242.226" y="240.621" width="133.13" height="51.204" fill="#f2f2f2"/>
  <line x1="723.243" x2="723.243" y2="379.681" fill="none" stroke="#999" stroke-miterlimit="10" stroke-width="10"/>
  <circle cx="723.243" cy="411.546" r="49.04" fill="#fff" stroke="#999" stroke-miterlimit="10" stroke-width="10"/>
  <g>
    <circle cx="744.228" cy="411.546" r="14.127" fill="#f2f2f2" stroke="gray" stroke-miterlimit="10" stroke-width="6"/>
    <polyline points="686.405 401.252 686.405 415.542 730.101 415.542" fill="none" stroke="gray" stroke-linecap="round" stroke-miterlimit="10" stroke-width="5"/>
    <line x1="696.032" y1="415.542" x2="696.032" y2="401.252" fill="#f2f2f2" stroke="gray" stroke-linecap="round" stroke-miterlimit="10" stroke-width="5"/>
    <circle cx="744.228" cy="411.546" r="7.941" fill="none" stroke="gray" stroke-miterlimit="10" stroke-width="3"/>
  </g>
  <path d="M684.632,760.719S572.087,836.076,402.75,823.661c0,0,21.5,27.343,83.394,28.5s128.245-24.468,128.245-24.468S688.1,805.352,684.632,760.719Z" fill="#b3b3b3"/>
  <path d="M682.552,742.314C667.947,690.5,619.033,610.462,511.9,630.547,383.133,664.915,395.232,800.662,395.232,800.662s-3.756,37.928,56.33,47.766c28.736,5.382,67.008,5.074,103.972-2.381,41.218-8.314,80.145-26.737,100.868-39.217C698.724,781.344,682.552,742.314,682.552,742.314Z" fill="none" stroke="#999" stroke-miterlimit="10" stroke-width="3"/>
  <rect x="380.57" y="751.366" width="23.557" height="48.99" rx="11.779" transform="translate(62.663 -28.63) rotate(4.541)" fill="#bbbcbb" stroke="#999" stroke-miterlimit="10" stroke-width="2"/>
  <rect x="663.224" y="696.892" width="23.499" height="46.412" rx="11.749" transform="translate(1606.185 1047.166) rotate(152.5)" fill="#bbbcbb" stroke="#999" stroke-miterlimit="10" stroke-width="2"/>
</svg>
